<?xml version="1.0" encoding="UTF-8"?>
<!-- Generated by jsxcad -->
<!DOCTYPE svg PUBLIC "-//W3C//DTD SVG 1.1 Tiny//EN" "http://www.w3.org/Graphics/SVG/1.1/DTD/svg11-tiny.dtd">
<svg baseProfile="tiny" height="26.771240595447136mm" width="30.000000000000014mm" viewBox="-15.000000000000007 -22.87991314260307 30.000000000000014 26.771240595447136" version="1.1" stroke="black" stroke-width=".1" fill="none" xmlns="http://www.w3.org/2000/svg">
<path fill="#c7df66" stroke="#c7df66" d="M5.999999999999999 7.746531302876482 L5.999999999999999 6.686632825719123 L5.858211385105651 7.448727286572703 L5.858211385105651 8.508625763730064 z"/>
<path fill="#c7df66" stroke="#c7df66" d="M2.9999999999999956 10.363504133969398 L1.9999999999999998 10.656607538003962 L1.9999999999999998 11.716506015161322 L2.9999999999999956 11.42340261112676 z"/>
<path fill="#c7df66" stroke="#c7df66" d="M2.999999999999994 11.42340261112676 L3.905524636492588 10.931728556480222 L3.9055246364925886 9.871830079322862 L3.1863961030678873 10.262296365486499 L2.999999999999994 10.3635041339694 z"/>
<path fill="#c7df66" stroke="#c7df66" d="M6.7059309558953615 2.4673217293316743 L6.843825541896874 2.438990650653477 L6.843825541896874 3.498889127810838 L5.924528301886792 3.6877629856654877 L5.924528301886792 2.6278645085081265 L6.382079012855806 2.533858604668028 L6.488043754670571 2.5120876597417636 z"/>
<path fill="#c7df66" stroke="#c7df66" d="M8.523753338515721 3.0021220384185834 L8.523753338515718 4.062020515575942 L7.7818650713014454 3.6339556773731023 L7.781865071301446 2.574057200215745 L8.187003494590414 2.8078195082060584 L8.412470098433579 2.937912312688157 z"/>
<path fill="#c7df66" stroke="#c7df66" d="M8.312011049508198 5.9329706620544895 L8.823116583469448 5.360230092378686 L8.82311658346945 4.300331615221326 L8.609541365573989 4.539662211033959 L8.388676879602386 4.7871610994457585 L8.312011049508198 4.873072184897128 z"/>
<path fill="#c7df66" stroke="#c7df66" d="M8.84316578068454 3.5316708748975074 L8.872231166284205 3.579857918024582 L8.899532682243745 3.6251206695702587 L8.899532682243745 4.685019146727619 L8.523753338515718 4.062020515575943 L8.52375333851572 3.0021220384185825 z"/>
<path fill="#c7df66" stroke="#c7df66" d="M8.82311658346945 4.300331615221326 L8.82311658346945 5.360230092378686 L8.899532682243743 4.685019146727619 L8.899532682243745 3.6251206695702587 L8.834578998285593 4.199049973373666 z"/>
<path fill="#c7df66" stroke="#c7df66" d="M6.940850103683113 2.452961035026911 L7.641159141890758 2.553797217781401 L7.781865071301443 2.5740572002157402 L7.781865071301443 3.6339556773730988 L6.843825541896874 3.4988891278108345 L6.843825541896874 2.438990650653476 z"/>
<path fill="#c7df66" stroke="#c7df66" d="M-6.367972160899324 10.879331045032455 L-7.180964363762545 10.902883543867953 L-7.324433576032526 10.907039867191864 L-7.324433576032526 11.966938344349227 L-6.367972160899324 11.939229522189818 z"/>
<path fill="#c7df66" stroke="#c7df66" d="M-6.367972160899324 11.93922952218982 L-3.9055246364925886 10.931728556480222 L-3.9055246364925886 9.87183007932286 L-5.998605032238314 10.728205900176018 L-6.367972160899324 10.879331045032458 z"/>
<path fill="#c7df66" stroke="#c7df66" d="M5.8499984921142465 6.940293662678096 L8.312011049508198 5.9329706620544895 L8.312011049508198 4.873072184897128 L6.850633858034674 5.470989061127935 L6.21930037572334 5.7292967354271935 L5.8499984921142465 5.880395185520735 z"/>
<path fill="#c7df66" stroke="#c7df66" d="M-5.858211385105651 8.508625763730063 L-7.92674805771365 9.3549596143409 L-7.92674805771365 8.29506113718354 L-6.1684918859968505 7.575677364164328 L-5.858211385105651 7.448727286572702 z"/>
<path fill="#c7df66" stroke="#c7df66" d="M5.614193889178248 2.7548366439131677 L5.924528301886792 2.627864508508127 L5.924528301886792 3.687762985665487 L3.8556322171631643 4.534243888365758 L3.8556322171631643 3.474345411208398 L5.063444521961745 2.980173636411418 L5.3550013110817805 2.8608842937203915 z"/>
<path fill="#c7df66" stroke="#c7df66" d="M-8.76509426102471 10.07578776323016 L-8.771837534363826 10.04654508840149 L-8.842279638288408 9.741067995049029 L-8.853773015941714 9.69122616178844 L-8.896131339479748 9.50753633946945 L-8.914059503979717 9.429789604555653 L-8.919255529795343 9.407256676452855 L-8.919255529795343 10.467155153610214 L-8.76509426102471 11.135686240387521 z"/>
<path fill="#c7df66" stroke="#c7df66" d="M-8.765094261024709 10.07578776323016 L-8.765094261024709 11.135686240387521 L-8.189535771894427 11.676945999978917 L-8.189535771894427 10.617047522821556 L-8.437018341139721 10.384312955505587 L-8.470243841605614 10.353067431837529 L-8.515789228870398 10.310236189093311 L-8.524685321549892 10.301870233111527 L-8.594474883310994 10.236239576741776 L-8.678760487655168 10.15697672716887 L-8.74286152312904 10.09669560595289 z"/>
<path fill="#c7df66" stroke="#c7df66" d="M-6.062422887888304 2.599533429829926 L-5.9267676139705685 2.627404431512571 L-5.924528301886792 2.6278645085081234 L-5.924528301886792 3.6877629856654845 L-6.843825541896874 3.4988891278108354 L-6.843825541896874 2.438990650653474 L-6.578538334923061 2.493495130858461 z"/>
<path fill="#c7df66" stroke="#c7df66" d="M-6.843825541896873 3.4988891278108354 L-7.781865071301443 3.6339556773731005 L-7.781865071301443 2.5740572002157416 L-6.98453147130756 2.4592506330878163 L-6.843825541896873 2.4389906506534764 z"/>
<path fill="#c7df66" stroke="#c7df66" d="M-8.74645075337526 4.386242700672698 L-8.823116583469446 4.300331615221327 L-8.823116583469446 5.3602300923786865 L-8.312011049508198 5.9329706620544895 L-8.3120110495082 4.873072184897129 z"/>
<path fill="#c7df66" stroke="#c7df66" d="M-8.52375333851572 3.002122038418583 L-7.893148311383588 2.638266925946172 L-7.781865071301446 2.5740572002157434 L-7.781865071301446 3.633955677373105 L-8.52375333851572 4.062020515575944 z"/>
<path fill="#c7df66" stroke="#c7df66" d="M-8.523753338515718 4.062020515575943 L-8.899532682243745 4.685019146727619 L-8.899532682243745 3.625120669570259 L-8.580120240074923 3.095571833091334 L-8.523753338515718 3.002122038418583 z"/>
<path fill="#c7df66" stroke="#c7df66" d="M-8.888070267427599 3.726402311417919 L-8.899532682243745 3.625120669570259 L-8.899532682243745 4.68501914672762 L-8.823116583469448 5.360230092378687 L-8.823116583469448 4.300331615221326 z"/>
<path fill="#c7df66" stroke="#c7df66" d="M-8.189535771894427 11.676945999978916 L-7.324433576032526 11.966938344349227 L-7.324433576032526 10.907039867191868 L-8.059770442515143 10.660546374477104 L-8.189535771894427 10.617047522821558 z"/>
<path fill="#c7df66" stroke="#c7df66" d="M6.367972160899323 11.939229522189816 L7.324433576032527 11.966938344349225 L7.324433576032527 10.907039867191866 L6.511441373169303 10.883487368356366 L6.367972160899323 10.879331045032457 z"/>
<path fill="#c7df66" stroke="#c7df66" d="M8.189535771894429 10.617047522821556 L7.454198905411812 10.863541015536322 L7.324433576032527 10.907039867191868 L7.324433576032527 11.966938344349224 L8.189535771894429 11.676945999978912 z"/>
<path fill="#c7df66" stroke="#c7df66" d="M8.919255529795345 9.407256676452853 L8.919255529795345 10.467155153610213 L8.616703089375665 9.8245051549547 L8.616703089375665 8.764606677797339 L8.873872663732394 9.310859176654526 z"/>
<path fill="#c7df66" stroke="#c7df66" d="M8.616703089375667 9.824505154954698 L7.926748057713653 9.3549596143409 L7.926748057713653 8.29506113718354 L8.513209834626364 8.69417484670527 L8.616703089375669 8.764606677797337 z"/>
<path fill="#c7df66" stroke="#c7df66" d="M5.85821138510565 7.448727286572698 L7.6164675568224505 8.16811105959191 L7.926748057713651 8.295061137183536 L7.926748057713651 9.354959614340897 L5.85821138510565 8.508625763730057 z"/>
<path fill="#c7df66" stroke="#c7df66" d="M-4.165966629871709 3.3473732758033528 L-3.876165540852639 3.4659442805279106 L-3.855632217163165 3.4743454112083936 L-3.855632217163165 4.534243888365753 L-5.924528301886792 3.687762985665483 L-5.924528301886792 2.627864508508123 L-5.676839868168883 2.7292052817398336 z"/>
<path fill="#c7df66" stroke="#c7df66" d="M-3.0000000000000013 11.423402611126754 L-1.9418836348521036 11.733540119616285 L-1.9418836348521036 10.673641642458927 L-2.7829371405922703 10.427125996951279 L-3.0000000000000013 10.363504133969396 z"/>
<path fill="#c7df66" stroke="#c7df66" d="M-3.000000000000001 11.42340261112676 L-2.9999999999999973 10.363504133969396 L-3.9055246364925864 9.871830079322859 L-3.9055246364925864 10.93172855648022 z"/>
<path fill="#c7df66" stroke="#c7df66" d="M-6 6.68663282571912 L-5.849998492114247 5.880395185520736 L-5.849998492114247 6.940293662678096 L-6 7.746531302876481 z"/>
<path fill="#c7df66" stroke="#c7df66" d="M3.519388407520344 3.2917746112826944 L3.62842640105092 3.350979132318539 L3.8556322171631687 3.474345411208398 L3.855632217163165 4.534243888365759 L3.000000000000004 4.069659994626204 L3.0000000000000036 3.0097615174688466 L3.0279706584071873 3.0249487873408833 z"/>
<path fill="#c7df66" stroke="#c7df66" d="M1.9656368076959636 0.9270657036131821 L2.0000000000000004 1.0257191201353668 L2 2.0856175972927273 L1.7709120513064198 1.4279281538114952 L1.7709120513064205 0.36802967665413483 z"/>
<path fill="#c7df66" stroke="#c7df66" d="M1.7709120513064216 1.4279281538114963 L1.1361294934623154 0.9209074358148023 L1.136129493462313 -0.13899104134255819 L1.6756946676298063 0.2919765689546319 L1.770912051306423 0.3680296766541336 z"/>
<path fill="#c7df66" stroke="#c7df66" d="M-5.999999999999999 7.74653130287648 L-5.858211385105651 8.508625763730063 L-5.858211385105651 7.448727286572703 L-5.969333243660161 6.851462457183904 L-5.999999999999999 6.68663282571912 z"/>
<path fill="#c7df66" stroke="#c7df66" d="M1.1361294934623112 0.9209074358147961 L0.24107336051064593 0.6807077795336485 L0.24107336051064593 -0.37919069762370905 L1.0018710735195615 -0.17502098978473357 L1.1361294934623112 -0.13899104134256143 z"/>
<path fill="#c7df66" stroke="#c7df66" d="M-0.7092097740850712 -0.29754244565495713 L0.09853089032128835 -0.3669434598283945 L0.24107336051064593 -0.379190697623707 L0.24107336051064593 0.6807077795336511 L-0.7092097740850712 0.7623560315024009 z"/>
<path fill="#c7df66" stroke="#c7df66" d="M-0.8273815324236409 -0.23982371620585316 L-0.7092097740850712 -0.29754244565495985 L-0.7092097740850712 0.7623560315023978 L-1.4970214963422022 1.147147561163109 L-1.4970214963422022 0.08724908400575135 z"/>
<path fill="#c7df66" stroke="#c7df66" d="M-1.4970214963422046 0.0872490840057544 L-1.4970214963422035 1.147147561163115 L-1.941883634852106 1.7469312663111474 L-1.941883634852104 0.687032789153788 L-1.5637508171186898 0.17721663977795934 z"/>
<path fill="#c7df66" stroke="#c7df66" d="M2.775724265494973 2.944025536243067 L2.7829371405922694 2.9461396544869607 L2.921302454956525 2.9866949991274367 L3.0000000000000004 3.009761517468843 L3.0000000000000004 4.069659994626206 L1.9999999999999998 3.7765565905916403 L1.9999999999999998 2.7166581134342773 z"/>
<path fill="#c7df66" stroke="#c7df66" d="M-3.206445557531034 3.12185556797222 L-3.1863961030678927 3.110969285951748 L-3.1278577591454724 3.0791846345477683 L-3.0000000000000027 3.009761517468845 L-3.000000000000002 4.069659994626205 L-3.8556322171631683 4.534243888365756 L-3.8556322171631687 3.4743454112083962 L-3.7558737608986736 3.4201794142822117 z"/>
<path fill="#c7df66" stroke="#c7df66" d="M-2.9999999999999982 3.009761517468841 L-2.8292211097187026 2.9597056433901474 L-1.9418836348521038 2.6996240089793115 L-1.9418836348521038 3.7595224861366705 L-2.9999999999999982 4.0696599946262 z"/>
<path fill="#c7df66" stroke="#c7df66" d="M-1.941883634852104 11.73354011961629 L-1.941883634852104 13.746131339441819 L-1.941883634852104 12.686232862284458 L-1.941883634852104 11.738439926432427 L-1.941883634852104 10.975530325432759 L-1.941883634852104 10.673641642458929 z"/>
<path fill="#c7df66" stroke="#c7df66" d="M-1.941883634852104 0.9889214721276172 L-1.941883634852104 0.6870327891537877 L-1.941883634852104 1.746931266311148 L-1.941883634852104 3.759522486136677 L-1.941883634852104 2.699624008979317 z"/>
<path fill="#c7df66" stroke="#c7df66" d="M-1.378849738003632 13.343735296881597 L-1.4970214963422017 13.28601656743249 L-1.4970214963422017 14.34591504458985 L-0.7092097740850708 14.73070657425056 L-0.7092097740850708 13.6708080970932 z"/>
<path fill="#c7df66" stroke="#c7df66" d="M1.9999999999999993 12.347546531302877 L1.805275243610457 12.906582558261924 L1.7709120513064198 13.00523597478411 L1.7709120513064198 14.065134451941471 L1.9999999999999998 13.40744500846024 z"/>
<path fill="#c7df66" stroke="#c7df66" d="M1.1361294934623127 14.572155169938164 L1.7709120513064198 14.065134451941471 L1.7709120513064192 13.00523597478411 L1.231346877138929 13.4362035850813 L1.2255041833223927 13.440870327696212 L1.1361294934623114 13.512256692780804 z"/>
<path fill="#c7df66" stroke="#c7df66" d="M0.24107336051064648 13.752456349061948 L0.24107336051064648 14.81235482621931 L1.1361294934623125 14.572155169938164 L1.1361294934623125 13.5122566927808 L0.37533178045339644 13.716426400619776 z"/>
<path fill="#c7df66" stroke="#c7df66" d="M0.2410733605106465 13.752456349061951 L-0.5666673038957132 13.683055334888513 L-0.7092097740850708 13.670808097093202 L-0.7092097740850708 14.730706574250561 L0.2410733605106465 14.81235482621931 z"/>
<path fill="#c7df66" stroke="#c7df66" d="M-3.076705802010612 11.225851317532515 L-3.0767058020106126 7.3395569012888595 L-3.0251555632255065 7.245397150841911 L-3.0062836488788287 7.210926413417263 L-2.989226608920734 7.179770658106159 L-2.97157982843469 7.14753770466273 L-2.7142920020668324 6.6775853223891 L-2.661179634833691 6.580572246171032 L-2.661179634833692 10.466866662414686 L-2.9090373485883463 10.919594351432337 L-2.988636868392784 11.064987876217486 z"/>
<path fill="#c7df66" stroke="#c7df66" d="M-2.74865882792357 8.752704116399231 L-3.0235934347774718 8.250518780682173 L-3.0767058020106126 8.153505704464104 L-3.0767058020106113 12.039800120707758 L-2.828848088255958 12.492527809725411 L-2.6611796348336916 12.798784775825586 L-2.661179634833692 8.912490359581932 L-2.7127298736187986 8.818330609134982 z"/>
<path fill="#c7df66" stroke="#c7df66" d="M8.919255529795345 9.407256676452853 L8.880826332300098 9.573907569834521 L8.868160737920554 9.628832802629763 L8.800772145989235 9.921068128399332 L8.788218451340306 9.975508100213563 L8.787462974974042 9.978784276131163 L8.76509426102471 10.07578776323016 L8.76509426102471 11.135686240387521 L8.919255529795345 10.467155153610214 z"/>
<path fill="#c7df66" stroke="#c7df66" d="M-7.926748057713652 9.3549596143409 L-8.616703089375667 9.8245051549547 L-8.616703089375667 8.764606677797339 L-8.030241312462953 8.365492968275612 L-7.926748057713652 8.295061137183541 z"/>
<path fill="#c7df66" stroke="#c7df66" d="M-1.8862464118670719 9.865351238707099 L-2.348487281706812 10.22414991249759 L-2.6611796348336942 10.466866662414686 L-2.6611796348336947 6.580572246171031 L-2.565041302661144 6.5059481522524205 L-2.49803579841967 6.453937420127327 L-1.9852980268327323 6.055942252561405 L-1.8862464118670725 5.979056822463444 z"/>
<path fill="#c7df66" stroke="#c7df66" d="M3.905524636492589 10.93172855648022 L6.367972160899323 11.939229522189818 L6.367972160899323 10.879331045032458 L4.2748917651535985 10.0229552241793 L3.905524636492589 9.87183007932286 z"/>
<path fill="#c7df66" stroke="#c7df66" d="M-7.942709165899107 5.02417063499067 L-8.3120110495082 4.873072184897128 L-8.3120110495082 5.932970662054489 L-5.849998492114246 6.940293662678095 L-5.849998492114246 5.880395185520736 z"/>
<path fill="#c7df66" stroke="#c7df66" d="M1.5090404381353177 5.82474777221026 L1.5476647889487005 5.845387290779927 L1.5884109182795347 5.867160614480021 L2.195767635904862 6.191711059674684 L2.3130979109006664 6.254408304769106 L2.3130979109006655 10.14070272101276 L1.7655566275869223 9.848115577238783 L1.3951610535805676 9.650188979979918 L1.395161053580567 5.763894563736262 z"/>
<path fill="#c7df66" stroke="#c7df66" d="M8.467371109376922 10.355768971967397 L8.275869545263967 10.535858558882845 L8.250233435448049 10.559966959502203 L8.189535771894427 10.617047522821556 L8.189535771894425 11.676945999978916 L8.76509426102471 11.135686240387521 L8.765094261024709 10.07578776323016 L8.596190947333652 10.234625776549635 L8.554751098525509 10.273596138427695 L8.523979423276 10.302534065436546 L8.491157176898316 10.333400365767687 z"/>
<path fill="#c7df66" stroke="#c7df66" d="M-0.39440028431066443 9.472238834381372 L-0.8565651589256171 9.502543037493481 L-0.8565651589256171 5.616248621249828 L-0.7144709894011442 5.606931490479335 L-0.6154356591265113 5.600437732669597 L-0.12889646182453396 5.568535302461491 L-0.05648632841922566 5.56378736182252 L0.017503591624923136 5.558935834394922 L0.2887999651201354 5.5411469004937315 L0.2887999651201354 9.427441316737385 L-0.05648632841922566 9.450081778066172 z"/>
<path fill="#c7df66" stroke="#c7df66" d="M3.085502753270659 7.914971256148308 L2.9456542635498755 8.444353966431189 L2.9186380780356336 8.546621080917655 L2.9186380780356327 12.432915497161309 L3.04471361043543 11.955668962891135 L3.1299999999999994 11.632825719120138 L3.129999999999999 7.746531302876482 L3.103778408177353 7.845790561054523 z"/>
<path fill="#c7df66" stroke="#c7df66" d="M-8.919255529795345 9.407256676452855 L-8.912848274184897 9.393647059542385 L-8.905193347507856 9.377387271282588 L-8.662085955438616 8.861004177595667 L-8.616703089375665 8.76460667779734 L-8.616703089375665 9.8245051549547 L-8.919255529795345 10.467155153610214 z"/>
<path fill="#c7df66" stroke="#c7df66" d="M2.0597325549089294 9.374043993231812 L2.0597325549089316 10.692882022412688 L2.0597325549089303 13.260338409475468 L2.104349880192661 13.236496452411343 L2.313097910900661 13.124948717227515 L2.31309791090066 9.238654300983859 L2.200205392429394 9.298980162319928 L2.1198480462016933 9.341920351727616 z"/>
<path fill="#c7df66" stroke="#c7df66" d="M6 7.746531302876483 L5.849998492114247 6.940293662678097 L5.849998492114247 5.880395185520736 L5.969333243660161 6.521803194254339 L6 6.686632825719122 z"/>
<path fill="#c7df66" stroke="#c7df66" d="M-0.8565651589256172 9.502543037493483 L-1.470760994013502 9.718954946989323 L-1.8862464118670712 9.865351238707097 L-1.8862464118670712 5.979056822463442 L-1.7585040007878683 5.934046782463257 L-1.6694714112478177 5.902676148523734 L-0.9881785521587354 5.6626226018560795 L-0.8565651589256172 5.616248621249827 z"/>
<path fill="#c7df66" stroke="#c7df66" d="M2 12.347546531302878 L2 13.40744500846024 L2 11.716506015161325 L2 10.656607538003964 L2 11.738439926432427 L2 12.093905682308042 z"/>
<path fill="#c7df66" stroke="#c7df66" d="M2 2.716658113434281 L2 3.776556590591641 L2 2.0856175972927273 L2 1.025719120135367 L2 2.4630172644394435 z"/>
<path fill="#c7df66" stroke="#c7df66" d="M-3.076705802010612 7.33955690128886 L-3.076705802010612 11.225851317532515 L-3.076705802010612 11.711364638724765 L-3.0767058020106126 12.039800120707758 L-3.0767058020106126 8.153505704464104 L-3.076705802010612 8.052527093543866 L-3.076705802010612 7.982148061690369 L-3.076705802010612 7.734633462403777 L-3.076705802010612 7.443595470115771 z"/>
<path fill="#c7df66" stroke="#c7df66" d="M2.0597325549089325 10.692882022412682 L2.0597325549089325 9.374043993231808 L1.879791920315505 9.374043993231808 L1.7443694529161957 9.374043993231808 L-1.0126580311414737 9.374043993231808 L-1.8002188229228304 9.374043993231808 L-1.904891408587912 9.374043993231808 L-2.0409340461466843 9.374043993231808 L-2.0665593960181208 9.374043993231808 L-2.0665593960181208 9.820216007830734 L-2.0665593960181208 11.663663465485481 L-2.0665593960181208 13.260338409475468 L-1.349206349206349 13.260338409475468 L2.0597325549089325 13.260338409475468 z"/>
<path fill="#c7df66" stroke="#c7df66" d="M2.3130979109006633 10.140702721012762 L2.3130979109006633 6.2544083047691075 L2.388221315094101 6.3402620501156655 L2.4405800513501323 6.400099508993571 L2.8412382070484603 6.857986150841887 L2.9186380780356354 6.946441524835312 L2.918638078035635 10.832735941078965 L2.557438680095478 10.419944195776317 z"/>
<path fill="#c7df66" stroke="#c7df66" d="M2.3130979109006606 9.238654300983859 L2.313097910900662 13.124948717227513 L2.674297308840818 12.712156971924864 L2.918638078035633 12.432915497161309 L2.918638078035632 8.546621080917655 L2.843514673842196 8.632474826264215 L2.7911559375861645 8.692312285142119 L2.3904977818878383 9.150198926990434 z"/>
<path fill="#c7df66" stroke="#c7df66" d="M-2.06655939601812 9.820216007830735 L-2.06655939601812 9.374043993231812 L-2.1231782955150997 9.330095507979879 L-2.242715101428865 9.237309148682222 L-2.6611796348336902 8.91249035958193 L-2.661179634833691 12.798784775825586 L-2.1989387649939536 13.157583449616078 L-2.1363239022297753 13.206186096385824 L-2.0665593960181203 13.260338409475468 L-2.0665593960181203 11.663663465485488 z"/>
<path fill="#c7df66" stroke="#c7df66" d="M0.7352263692357476 9.517321952782611 L0.2887999651201354 9.42744131673738 L0.2887999651201354 5.541146900493727 L0.4260552881246249 5.568781009091485 L0.5217180890065417 5.5880411453868915 L1.2537464783638188 5.735423057908266 L1.3951610535805654 5.763894563736258 L1.3951610535805654 9.65018897997991 z"/>
<path fill="#c7df66" stroke="#c7df66" d="M3.0039244676002026 11.155579184849966 L2.918638078035634 10.832735941078965 L2.918638078035635 6.946441524835312 L2.9448596698582814 7.045700783013352 L2.9631353247649743 7.1148814781071374 L3.102983814485758 7.644264188390017 L3.13 7.746531302876483 L3.1300000000000003 11.632825719120136 z"/>
<path fill="#c7df66" stroke="#c7df66" d="M3.000000000000001 4.069659994626207 L3.8556322171631647 4.534243888365759 L5.924528301886792 3.687762985665488 L6.843825541896874 3.498889127810839 L7.781865071301443 3.633955677373103 L8.523753338515718 4.062020515575943 L8.899532682243745 4.685019146727619 L8.82311658346945 5.360230092378686 L8.3120110495082 5.9329706620544895 L5.849998492114247 6.940293662678096 L6 7.746531302876483 L5.858211385105651 8.508625763730063 L7.926748057713651 9.3549596143409 L8.616703089375665 9.8245051549547 L8.919255529795345 10.467155153610214 L8.76509426102471 11.13568624038752 L8.189535771894429 11.676945999978916 L7.324433576032528 11.966938344349229 L6.367972160899324 11.93922952218982 L3.9055246364925895 10.93172855648022 L2.9999999999999964 11.423402611126761 L2 11.716506015161324 L2 13.407445008460238 L1.77091205130642 14.06513445194147 L1.1361294934623127 14.572155169938164 L0.24107336051064654 14.81235482621931 L-0.7092097740850709 14.730706574250561 L-1.497021496342202 14.345915044589852 L-1.941883634852104 13.746131339441819 L-1.941883634852104 11.733540119616288 L-3.0000000000000018 11.42340261112676 L-3.905524636492589 10.93172855648022 L-6.367972160899324 11.93922952218982 L-7.3244335760325265 11.966938344349229 L-8.189535771894427 11.676945999978916 L-8.76509426102471 11.13568624038752 L-8.919255529795345 10.467155153610214 L-8.616703089375665 9.8245051549547 L-7.926748057713651 9.3549596143409 L-5.858211385105651 8.508625763730064 L-6 7.746531302876481 L-5.849998492114247 6.940293662678096 L-8.3120110495082 5.9329706620544895 L-8.823116583469448 5.3602300923786865 L-8.899532682243745 4.685019146727619 L-8.523753338515718 4.062020515575943 L-7.781865071301444 3.633955677373104 L-6.843825541896874 3.498889127810839 L-5.924528301886792 3.687762985665488 L-3.855632217163165 4.534243888365758 L-2.9999999999999987 4.069659994626206 L-1.941883634852104 3.759522486136677 L-1.941883634852104 1.7469312663111478 L-1.4970214963422024 1.1471475611631152 L-0.7092097740850714 0.762356031502404 L0.24107336051064596 0.6807077795336542 L1.1361294934623114 0.9209074358148017 L1.7709120513064198 1.427928153811495 L2 2.0856175972927273 L2 3.7765565905916407 M-3.0767058020106126 8.153505704464104 L-3.023593434777472 8.250518780682173 L-2.74865882792357 8.752704116399231 L-2.712729873618799 8.818330609134982 L-2.6611796348336925 8.912490359581932 L-2.242715101428866 9.237309148682222 L-2.1231782955151 9.330095507979877 L-2.0665593960181208 9.374043993231812 L-2.0409340461466843 9.374043993231812 L-1.904891408587912 9.374043993231812 L-1.8002188229228304 9.374043993231812 L-1.0126580311414737 9.374043993231812 L1.7443694529161957 9.374043993231812 L1.879791920315505 9.374043993231812 L2.0597325549089325 9.374043993231812 L2.119848046201694 9.341920351727614 L2.200205392429395 9.29898016231993 L2.3130979109006624 9.238654300983857 L2.390497781887839 9.150198926990434 L2.791155937586166 8.692312285142117 L2.843514673842197 8.632474826264213 L2.9186380780356336 8.546621080917655 L2.9456542635498755 8.444353966431189 L3.0855027532706596 7.914971256148308 L3.1037784081773525 7.845790561054523 L3.13 7.746531302876483 L3.1029838144857576 7.644264188390017 L2.9631353247649743 7.1148814781071374 L2.944859669858281 7.045700783013352 L2.9186380780356345 6.946441524835312 L2.8412382070484576 6.857986150841888 L2.4405800513501306 6.400099508993572 L2.3882213150940994 6.340262050115666 L2.3130979109006633 6.254408304769107 L2.1957676359048612 6.191711059674683 L1.5884109182795334 5.867160614480019 L1.547664788948699 5.845387290779927 L1.5090404381353144 5.824747772210261 L1.3951610535805656 5.763894563736263 L1.2537464783638188 5.73542305790827 L0.5217180890065417 5.588041145386896 L0.4260552881246249 5.568781009091489 L0.28879996512013545 5.5411469004937315 L0.017503591624923136 5.558935834394922 L-0.05648632841922567 5.56378736182252 L-0.12889646182453396 5.568535302461491 L-0.6154356591265114 5.600437732669598 L-0.7144709894011442 5.606931490479335 L-0.8565651589256174 5.616248621249828 L-0.9881785521587355 5.66262260185608 L-1.6694714112478177 5.902676148523735 L-1.7585040007878683 5.934046782463259 L-1.8862464118670714 5.979056822463444 L-1.9852980268327296 6.055942252561406 L-2.498035798419666 6.453937420127328 L-2.565041302661141 6.505948152252421 L-2.6611796348336916 6.580572246171032 L-2.7142920020668315 6.6775853223891 L-2.9715798284346895 7.14753770466273 L-2.9892266089207338 7.179770658106159 L-3.006283648878828 7.210926413417263 L-3.025155563225505 7.245397150841911 L-3.076705802010612 7.33955690128886 L-3.076705802010612 7.443595470115771 L-3.076705802010612 7.734633462403777 L-3.076705802010612 7.98214806169037 L-3.076705802010612 8.052527093543867 z"/>
<path fill="#c7df66" stroke="#c7df66" d="M14.795419551040833 8.433674898191278 L14.999999999999998 6.686632825719123 L14.999999999999998 11.632825719120138 L14.795419551040833 13.379867791592293 z"/>
<path fill="#c7df66" stroke="#c7df66" d="M14.187258625509518 10.133062217125179 L14.795419551040833 8.433674898191278 L14.795419551040833 13.379867791592291 L14.187258625509518 15.079255110526194 z"/>
<path fill="#c7df66" stroke="#c7df66" d="M13.192106268097332 11.738439926432426 L14.187258625509518 10.133062217125179 L14.187258625509518 15.079255110526194 L13.192106268097332 16.68463281983344 z"/>
<path fill="#c7df66" stroke="#c7df66" d="M11.837107640945902 13.20601750711047 L13.19210626809733 11.738439926432426 L13.192106268097332 16.68463281983344 L11.8371076409459 18.152210400511482 z"/>
<path fill="#c7df66" stroke="#c7df66" d="M10.159223574386113 14.49576326844764 L11.837107640945902 13.206017507110468 L11.837107640945902 18.152210400511482 L10.159223574386113 19.441956161848655 z"/>
<path fill="#c7df66" stroke="#c7df66" d="M8.204222371836401 15.572496308190935 L10.159223574386113 14.49576326844764 L10.159223574386113 19.441956161848655 L8.204222371836401 20.51868920159195 z"/>
<path fill="#c7df66" stroke="#c7df66" d="M6.025431369794541 16.406846155849703 L8.204222371836401 15.572496308190932 L8.204222371836401 20.518689201591947 L6.025431369794541 21.353039049250718 z"/>
<path fill="#c7df66" stroke="#c7df66" d="M3.6822823071119877 16.97605392256754 L6.02543136979454 16.406846155849703 L6.02543136979454 21.35303904925072 L3.6822823071119877 21.92224681596856 z"/>
<path fill="#c7df66" stroke="#c7df66" d="M1.2386901820849858 17.264593104282298 L3.6822823071119877 16.976053922567544 L3.6822823071119877 21.92224681596856 L1.2386901820849858 22.210785997683313 z"/>
<path fill="#c7df66" stroke="#c7df66" d="M-1.2386901820849836 17.264593104282298 L1.238690182084986 17.264593104282298 L1.238690182084986 22.210785997683317 L-1.2386901820849836 22.210785997683317 z"/>
<path fill="#c7df66" stroke="#c7df66" d="M-3.682282307111985 16.976053922567548 L-1.2386901820849834 17.2645931042823 L-1.2386901820849834 22.210785997683317 L-3.682282307111985 21.92224681596856 z"/>
<path fill="#c7df66" stroke="#c7df66" d="M-6.02543136979454 16.406846155849703 L-3.682282307111985 16.976053922567544 L-3.682282307111985 21.922246815968563 L-6.02543136979454 21.35303904925072 z"/>
<path fill="#c7df66" stroke="#c7df66" d="M-8.2042223718364 15.572496308190933 L-6.02543136979454 16.406846155849703 L-6.02543136979454 21.353039049250718 L-8.2042223718364 20.518689201591947 z"/>
<path fill="#c7df66" stroke="#c7df66" d="M-10.159223574386111 14.49576326844764 L-8.2042223718364 15.572496308190937 L-8.2042223718364 20.51868920159195 L-10.159223574386111 19.441956161848655 z"/>
<path fill="#c7df66" stroke="#c7df66" d="M-11.837107640945902 13.20601750711047 L-10.159223574386113 14.495763268447641 L-10.159223574386113 19.441956161848655 L-11.837107640945902 18.152210400511482 z"/>
<path fill="#c7df66" stroke="#c7df66" d="M-13.192106268097332 11.738439926432426 L-11.837107640945902 13.20601750711047 L-11.837107640945902 18.152210400511485 L-13.192106268097334 16.68463281983344 z"/>
<path fill="#c7df66" stroke="#c7df66" d="M-14.795419551040833 8.43367489819128 L-14.187258625509518 10.133062217125179 L-14.187258625509518 15.079255110526194 L-14.795419551040835 13.379867791592295 z"/>
<path fill="#c7df66" stroke="#c7df66" d="M-14.187258625509518 10.133062217125179 L-13.192106268097332 11.738439926432426 L-13.192106268097332 16.68463281983344 L-14.187258625509518 15.079255110526194 z"/>
<path fill="#c7df66" stroke="#c7df66" d="M-14.795419551040837 4.9395907532469705 L-14.999999999999998 6.686632825719125 L-15 11.63282571912014 L-14.795419551040837 9.885783646647985 z"/>
<path fill="#c7df66" stroke="#c7df66" d="M-14.187258625509523 3.2402034343130706 L-14.795419551040837 4.9395907532469705 L-14.795419551040837 9.885783646647985 L-14.187258625509523 8.186396327714084 z"/>
<path fill="#c7df66" stroke="#c7df66" d="M-13.19210626809734 1.6348257250058238 L-14.187258625509523 3.2402034343130706 L-14.187258625509523 8.186396327714084 L-13.192106268097339 6.581018618406839 z"/>
<path fill="#c7df66" stroke="#c7df66" d="M-11.837107640945913 0.16724814432778431 L-13.19210626809734 1.6348257250058233 L-13.192106268097339 6.581018618406839 L-11.837107640945913 5.113441037728798 z"/>
<path fill="#c7df66" stroke="#c7df66" d="M-10.159223574386127 -1.1224976170093877 L-11.837107640945913 0.1672481443277824 L-11.837107640945913 5.113441037728799 L-10.159223574386125 3.8236952763916263 z"/>
<path fill="#c7df66" stroke="#c7df66" d="M-15 6.686632825719125 L-14.795419551040833 8.433674898191281 L-14.795419551040835 13.379867791592295 L-14.999999999999998 11.63282571912014 z"/>
<path fill="#c7df66" stroke="#c7df66" d="M-6.025431369794559 -3.033580504411459 L-8.204222371836417 -2.199230656752686 L-8.204222371836417 2.7469622366483257 L-6.025431369794559 1.9126123889895528 z"/>
<path fill="#c7df66" stroke="#c7df66" d="M-3.682282307112011 -3.602788271129302 L-6.025431369794559 -3.0335805044114594 L-6.025431369794559 1.912612388989556 L-3.682282307112011 1.3434046222717133 z"/>
<path fill="#c7df66" stroke="#c7df66" d="M-1.2386901820850098 -3.891327452844064 L-3.682282307112011 -3.6027882711293073 L-3.682282307112011 1.3434046222717118 L-1.2386901820850098 1.0548654405569546 z"/>
<path fill="#c7df66" stroke="#c7df66" d="M1.238690182084953 -3.891327452844061 L-1.2386901820850098 -3.8913274528440573 L-1.2386901820850098 1.0548654405569513 L1.238690182084953 1.0548654405569475 z"/>
<path fill="#c7df66" stroke="#c7df66" d="M3.6822823071119566 -3.6027882711293087 L1.238690182084953 -3.891327452844061 L1.238690182084953 1.054865440556952 L3.6822823071119566 1.3434046222717038 z"/>
<path fill="#c7df66" stroke="#c7df66" d="M6.025431369794506 -3.0335805044114736 L3.6822823071119566 -3.6027882711293087 L3.6822823071119566 1.343404622271701 L6.025431369794506 1.9126123889895363 z"/>
<path fill="#c7df66" stroke="#c7df66" d="M8.204222371836371 -2.1992306567527096 L6.025431369794506 -3.0335805044114768 L6.025431369794506 1.9126123889895397 L8.204222371836371 2.746962236648307 z"/>
<path fill="#c7df66" stroke="#c7df66" d="M10.159223574386084 -1.122497617009414 L8.204222371836376 -2.199230656752702 L8.204222371836378 2.7469622366483084 L10.159223574386084 3.823695276391599 z"/>
<path fill="#c7df66" stroke="#c7df66" d="M-8.204222371836423 -2.199230656752682 L-10.159223574386127 -1.1224976170093897 L-10.159223574386127 3.8236952763916245 L-8.204222371836426 2.7469622366483297 z"/>
<path fill="#c7df66" stroke="#c7df66" d="M13.192106268097314 1.634825725005788 L11.837107640945877 0.16724814432775334 L11.837107640945877 5.113441037728768 L13.192106268097312 6.581018618406803 z"/>
<path fill="#c7df66" stroke="#c7df66" d="M14.187258625509505 3.2402034343130373 L13.192106268097312 1.634825725005788 L13.192106268097312 6.581018618406803 L14.187258625509505 8.186396327714052 z"/>
<path fill="#c7df66" stroke="#c7df66" d="M11.837107640945879 0.16724814432775212 L10.159223574386083 -1.1224976170094154 L10.159223574386083 3.8236952763915983 L11.837107640945877 5.113441037728768 z"/>
<path fill="#c7df66" stroke="#c7df66" d="M14.795419551040828 4.939590753246932 L14.187258625509505 3.2402034343130373 L14.187258625509505 8.186396327714052 L14.795419551040828 9.885783646647946 z"/>
<path fill="#c7df66" stroke="#c7df66" d="M15 6.686632825719123 L14.795419551040828 4.939590753246933 L14.795419551040828 9.885783646647948 L15 11.632825719120138 z"/>
<path fill="#c7df66" stroke="#c7df66" d="M14.795419551040835 13.379867791592293 L15 11.632825719120136 L14.795419551040828 9.885783646647948 L14.187258625509505 8.186396327714052 L13.192106268097312 6.5810186184068025 L11.837107640945877 5.113441037728767 L10.159223574386083 3.8236952763915983 L8.204222371836373 2.7469622366483097 L6.025431369794507 1.9126123889895426 L3.682282307111957 1.3434046222717073 L1.2386901820849532 1.0548654405569553 L-1.23869018208501 1.0548654405569593 L-3.6822823071120117 1.3434046222717162 L-6.02543136979456 1.9126123889895588 L-8.20422237183642 2.7469622366483324 L-10.159223574386125 3.8236952763916263 L-11.837107640945913 5.113441037728798 L-13.192106268097339 6.581018618406838 L-14.187258625509523 8.186396327714085 L-14.795419551040837 9.885783646647985 L-15 11.63282571912014 L-14.795419551040835 13.379867791592297 L-14.18725862550952 15.079255110526194 L-13.192106268097334 16.68463281983344 L-11.837107640945904 18.152210400511482 L-10.159223574386115 19.441956161848655 L-8.204222371836401 20.51868920159195 L-6.025431369794541 21.35303904925072 L-3.6822823071119855 21.922246815968563 L-1.2386901820849836 22.210785997683317 L1.238690182084986 22.210785997683317 L3.682282307111988 21.92224681596856 L6.025431369794542 21.35303904925072 L8.204222371836403 20.51868920159195 L10.159223574386115 19.441956161848655 L11.837107640945904 18.152210400511482 L13.192106268097334 16.68463281983344 L14.18725862550952 15.079255110526194 M0.7352263692357476 9.517321952782616 L1.3951610535805656 9.650188979979916 L1.7655566275869208 9.848115577238783 L2.3130979109006633 10.140702721012762 L2.557438680095476 10.419944195776317 L2.9186380780356345 10.832735941078967 L3.0039244676002026 11.155579184849966 L3.13 11.632825719120136 L3.044713610435431 11.955668962891135 L2.9186380780356336 12.432915497161309 L2.6742973088408206 12.712156971924864 L2.3130979109006624 13.124948717227513 L2.1043498801926637 13.236496452411343 L2.0597325549089325 13.260338409475468 L-1.349206349206349 13.260338409475468 L-2.0665593960181208 13.260338409475468 L-2.136323902229776 13.206186096385824 L-2.198938764993954 13.157583449616077 L-2.6611796348336925 12.798784775825586 L-2.8288480882559583 12.49252780972541 L-3.0767058020106126 12.03980012070776 L-3.076705802010612 11.711364638724765 L-3.076705802010612 11.225851317532515 L-2.988636868392783 11.064987876217486 L-2.909037348588346 10.91959435143234 L-2.6611796348336916 10.466866662414686 L-2.3484872817068094 10.22414991249759 L-1.8862464118670714 9.865351238707099 L-1.470760994013502 9.718954946989323 L-0.8565651589256174 9.502543037493483 L-0.39440028431066443 9.472238834381374 L-0.05648632841922567 9.450081778066174 L0.28879996512013545 9.427441316737387 z"/>
<path fill="#c7df66" stroke="#c7df66" d="M-1.9418836348521034 12.686232862284458 L-1.9418836348521022 13.746131339441817 L-1.4970214963422015 14.34591504458985 L-1.4970214963422 13.28601656743249 L-1.6324681216652561 13.103401164246744 L-1.875154314075618 12.776200418056662 z"/>
<path fill="#c7df66" stroke="#c7df66" d="M15 6.686632825719123 L14.795419551040835 8.433674898191278 L14.18725862550952 10.133062217125179 L13.192106268097334 11.738439926432426 L11.837107640945904 13.206017507110468 L10.159223574386115 14.49576326844764 L8.204222371836403 15.572496308190935 L6.025431369794542 16.406846155849706 L3.682282307111988 16.976053922567544 L1.238690182084986 17.2645931042823 L-1.2386901820849836 17.2645931042823 L-3.6822823071119855 16.976053922567548 L-6.025431369794541 16.406846155849706 L-8.204222371836401 15.572496308190935 L-10.159223574386115 14.49576326844764 L-11.837107640945904 13.206017507110468 L-13.192106268097334 11.738439926432426 L-14.18725862550952 10.133062217125179 L-14.795419551040835 8.433674898191281 L-15 6.686632825719125 L-14.795419551040837 4.9395907532469705 L-14.187258625509523 3.2402034343130706 L-13.192106268097339 1.6348257250058238 L-11.837107640945913 0.16724814432778343 L-10.159223574386125 -1.1224976170093885 L-8.20422237183642 -2.199230656752682 L-6.02543136979456 -3.0335805044114554 L-3.6822823071120117 -3.6027882711292984 L-1.23869018208501 -3.891327452844055 L1.2386901820849532 -3.8913274528440587 L3.682282307111957 -3.602788271129307 L6.025431369794507 -3.033580504411472 L8.204222371836373 -2.1992306567527047 L10.159223574386083 -1.1224976170094163 L11.837107640945877 0.16724814432775204 L13.192106268097312 1.6348257250057883 L14.187258625509505 3.2402034343130373 L14.795419551040828 4.939590753246933 M2.7829371405922694 2.946139654486964 L2.775724265494974 2.9440255362430707 L2 2.716658113434281 L2 2.4630172644394435 L2 1.0257191201353668 L1.965636807695963 0.9270657036131822 L1.7709120513064198 0.36802967665413483 L1.6756946676298035 0.2919765689546308 L1.1361294934623114 -0.13899104134255846 L1.0018710735195615 -0.1750209897847306 L0.24107336051064596 -0.37919069762370605 L0.09853089032128835 -0.3669434598283936 L-0.7092097740850714 -0.2975424456549562 L-0.827381532423641 -0.23982371620584952 L-1.4970214963422024 0.08724908400575498 L-1.5637508171186876 0.17721663977795987 L-1.941883634852104 0.6870327891537877 L-1.941883634852104 0.988921472127617 L-1.941883634852104 2.699624008979317 L-2.829221109718703 2.9597056433901523 L-2.9999999999999987 3.0097615174688457 L-3.1278577591454706 3.079184634547769 L-3.1863961030678913 3.1109692859517457 L-3.2064455575310324 3.1218555679722177 L-3.755873760898669 3.420179414282212 L-3.855632217163165 3.4743454112083985 L-3.876165540852639 3.4659442805279155 L-4.165966629871709 3.3473732758033576 L-5.676839868168883 2.729205281739839 L-5.924528301886792 2.627864508508128 L-5.926767613970569 2.6274044315125753 L-6.062422887888304 2.5995334298299304 L-6.578538334923062 2.4934951308584656 L-6.843825541896874 2.4389906506534786 L-6.98453147130756 2.4592506330878185 L-7.781865071301444 2.574057200215744 L-7.893148311383585 2.6382669259461697 L-8.523753338515718 3.002122038418583 L-8.580120240074923 3.095571833091334 L-8.899532682243745 3.625120669570259 L-8.888070267427599 3.726402311417919 L-8.823116583469448 4.300331615221326 L-8.74645075337526 4.386242700672697 L-8.3120110495082 4.873072184897129 L-7.942709165899108 5.02417063499067 L-5.849998492114247 5.880395185520736 L-6 6.68663282571912 L-5.969333243660161 6.851462457183903 L-5.858211385105651 7.448727286572704 L-6.168491885996851 7.57567736416433 L-7.926748057713651 8.295061137183541 L-8.030241312462953 8.36549296827561 L-8.616703089375665 8.764606677797339 L-8.662085955438616 8.861004177595666 L-8.905193347507856 9.377387271282588 L-8.912848274184897 9.393647059542383 L-8.919255529795345 9.407256676452853 L-8.914059503979717 9.429789604555651 L-8.89613133947975 9.50753633946945 L-8.853773015941714 9.69122616178844 L-8.842279638288408 9.741067995049029 L-8.771837534363826 10.04654508840149 L-8.76509426102471 10.07578776323016 L-8.742861523129042 10.09669560595289 L-8.678760487655168 10.15697672716887 L-8.594474883310996 10.236239576741776 L-8.524685321549894 10.301870233111527 L-8.515789228870398 10.310236189093311 L-8.470243841605615 10.353067431837529 L-8.437018341139723 10.384312955505589 L-8.189535771894427 10.617047522821556 L-8.059770442515143 10.660546374477104 L-7.3244335760325265 10.907039867191868 L-7.180964363762546 10.902883543867956 L-6.367972160899324 10.879331045032458 L-5.998605032238314 10.72820590017602 L-3.905524636492589 9.871830079322862 L-3.0000000000000018 10.363504133969398 L-2.7829371405922703 10.42712599695128 L-1.941883634852104 10.673641642458929 L-1.941883634852104 10.975530325432757 L-1.941883634852104 11.738439926432426 L-1.941883634852104 12.686232862284458 L-1.8751543140756186 12.77620041805666 L-1.6324681216652563 13.103401164246744 L-1.497021496342202 13.286016567432492 L-1.3788497380036322 13.343735296881597 L-0.7092097740850709 13.6708080970932 L-0.5666673038957133 13.683055334888513 L0.24107336051064654 13.75245634906195 L0.37533178045339644 13.71642640061978 L1.1361294934623127 13.512256692780804 L1.2255041833223939 13.44087032769621 L1.2313468771389287 13.436203585081298 L1.77091205130642 13.00523597478411 L1.8052752436104569 12.906582558261924 L2 12.347546531302878 L2 12.093905682308039 L2 11.738439926432426 L2 10.656607538003964 L2.9999999999999964 10.3635041339694 L3.1863961030678887 10.2622963654865 L3.9055246364925895 9.871830079322862 L4.274891765153599 10.0229552241793 L6.367972160899324 10.879331045032458 L6.511441373169305 10.88348736835637 L7.324433576032528 10.90703986719187 L7.454198905411813 10.863541015536322 L8.189535771894429 10.617047522821556 L8.250233435448049 10.559966959502203 L8.275869545263971 10.535858558882847 L8.467371109376923 10.355768971967397 L8.491157176898318 10.333400365767687 L8.523979423276 10.302534065436546 L8.554751098525513 10.273596138427697 L8.596190947333653 10.234625776549635 L8.76509426102471 10.07578776323016 L8.787462974974042 9.978784276131163 L8.788218451340306 9.975508100213563 L8.800772145989235 9.921068128399334 L8.868160737920554 9.628832802629763 L8.880826332300098 9.573907569834521 L8.919255529795345 9.407256676452853 L8.873872663732392 9.310859176654526 L8.616703089375665 8.764606677797339 L8.513209834626362 8.69417484670527 L7.926748057713651 8.295061137183541 L7.616467556822451 8.168111059591915 L5.858211385105651 7.448727286572704 L6 6.686632825719122 L5.969333243660161 6.52180319425434 L5.849998492114247 5.880395185520736 L6.21930037572334 5.7292967354271935 L6.850633858034675 5.470989061127935 L8.3120110495082 4.873072184897129 L8.388676879602388 4.7871610994457585 L8.609541365573989 4.539662211033959 L8.82311658346945 4.300331615221326 L8.834578998285593 4.199049973373666 L8.899532682243745 3.6251206695702587 L8.872231166284203 3.5798579180245818 L8.84316578068454 3.5316708748975074 L8.523753338515718 3.002122038418583 L8.412470098433577 2.9379123126881566 L8.18700349459041 2.807819508206059 L7.781865071301443 2.574057200215743 L7.641159141890758 2.5537972177814035 L6.940850103683114 2.452961035026914 L6.843825541896874 2.4389906506534786 L6.7059309558953615 2.467321729331676 L6.488043754670572 2.512087659741765 L6.382079012855807 2.53385860466803 L5.924528301886792 2.627864508508128 L5.614193889178248 2.7548366439131686 L5.3550013110817805 2.860884293720392 L5.063444521961746 2.980173636411419 L3.8556322171631647 3.474345411208399 L3.628426401050919 3.350979132318539 L3.519388407520341 3.2917746112826936 L3.027970658407184 3.024948787340885 L3.000000000000001 3.0097615174688466 L2.9213024549565256 2.9866949991274403 z"/>
<path fill="#c7df66" stroke="#c7df66" d="M1.265634617947523 5.147902376346022 L2.1467715206305242 5.421397024963024 L2.3158654594252335 5.531545623640617 L2.389479174779541 5.579497949120315 L3.097376499380842 6.040625644579078 L3.254386586434667 6.245925210761074 L3.7123326736749895 6.844715612125228 L3.7666307144388216 7.074966426785123 L3.925 7.746531302876483 L3.8707019592361673 7.976782117536376 L3.712332673674991 8.648346993627735 L3.555322586621166 8.85364655980973 L3.097376499380845 9.452436961173884 L2.854668845231827 9.610537885331176 L2.1467715206305256 10.07166558078994 L1.844667439710639 10.165435174601484 L1.5874996842945552 10.245257055502151 L0.9635305370276368 10.438929823218487 L0.6347676941323497 10.458206696209643 L-0.324123930978904 10.514430909100515 L-0.6439189805407765 10.457126112971189 L-1.5766545417629048 10.289987124260652 L-1.8528270422398736 10.162310522846981 L-2.6583301686310334 9.789920435390446 L-2.8609525443385486 9.605707769562194 L-3.1443259642957675 9.348080876515892 L-3.451934473485469 9.06842082756313 L-3.559049446005524 8.847634398016806 L-3.8714681158556847 8.203673978506696 L-3.8714681158556847 8.059326656698836 L-3.8714681158556847 7.9702394207380785 L-3.871468115855685 7.28938862724627 L-3.7643531433356303 7.0686021976999465 L-3.4519344734854704 6.424641778189836 L-3.249312097777955 6.240429112361586 L-2.6583301686310348 5.703142170362521 L-2.3821576681540657 5.575465568948852 L-1.5766545417629065 5.203075481492315 L-1.2568594922010339 5.145770685362987 L-0.32412393097890574 4.97863169665245 L0.004638911916381775 4.997908569643607 L0.963530537027637 5.054132782534478 M-3.076705802010612 7.33955690128886 L-3.076705802010612 7.376015974219442 L-3.076705802010612 7.734633462403777 L-3.076705802010612 7.745893403061433 L-3.076705802010612 7.982148061690369 L-3.076705802010612 8.072504107219897 L-3.0767058020106126 8.153505704464104 L-3.0580932077361704 8.1875027774817 L-2.9122914287975354 8.453818888582806 L-2.74865882792357 8.752704116399231 L-2.717282240847623 8.810015424330587 L-2.6611796348336925 8.912490359581932 L-2.1231782955151 9.330095507979879 L-2.075710016687707 9.366941136745439 L-2.0665593960181208 9.374043993231812 L-2.0409340461466843 9.374043993231812 L-2.0360718276439154 9.374043993231812 L-1.904891408587912 9.374043993231812 L-1.8793830292065905 9.374043993231812 L-1.8002188229228304 9.374043993231812 L1.7443694529161957 9.374043993231812 L1.879791920315505 9.374043993231812 L2.0597325549089325 9.374043993231812 L2.0803841162302765 9.363008512391142 L2.119848046201694 9.341920351727614 L2.3130979109006624 9.238654300983859 L2.3402217705707615 9.207656172425462 L2.791155937586166 8.692312285142119 L2.9186380780356336 8.546621080917655 L2.9281055773397484 8.510782792987479 L3.0855027532706596 7.914971256148308 L3.13 7.746531302876483 L3.1205325006958846 7.710693014946307 L2.9631353247649743 7.1148814781071374 L2.9186380780356345 6.946441524835312 L2.891514218365535 6.915443396276916 L2.4405800513501306 6.400099508993571 L2.3130979109006633 6.254408304769107 L2.271980918411521 6.2324368046108605 L2.1481208405507792 6.166250258475797 L1.592129994139988 5.869147960122532 L1.5884109182795334 5.867160614480019 L1.5870615983592784 5.866439584534815 L1.547664788948699 5.845387290779927 L1.39643616530415 5.764575939385123 L1.3951610535805656 5.763894563736262 L1.34560400594516 5.753917064822823 L0.5217180890065417 5.588041145386896 L0.28879996512013545 5.5411469004937315 L0.23749581622670865 5.544510919340589 L-0.6154356591265114 5.600437732669598 L-0.8565651589256174 5.616248621249829 L-0.9026874994829053 5.632499828471044 L-1.6694714112478177 5.902676148523735 L-1.8862464118670714 5.979056822463443 L-1.920957866423247 6.006000402472742 L-2.441160846363694 6.409790182829477 L-2.498035798419666 6.453937420127328 L-2.6416796512716436 6.5654360505260545 L-2.6611796348336916 6.580572246171031 L-2.6797922291081333 6.614569319188627 L-2.7380188409180626 6.7209238844943116 L-2.9892266089207338 7.179770658106159 L-2.990577424409696 7.182238007479084 z"/>
<path fill="#c7df66" stroke="#c7df66" d="M1.5921299941399911 5.8691479601225325 L2.1481208405507797 6.166250258475798 L2.271980918411523 6.2324368046108605 L2.313097910900664 6.254408304769107 L2.3130979109006677 18.61989053827164 L2.1520563569848576 18.53383549598518 L2.1467715206305273 18.531011462033128 L1.4001552411646092 18.13204551853017 L1.3951610535805683 18.1293767972388 L1.3951610535805685 5.7638945637362635 L1.396436165304153 5.764575939385125 L1.5476647889487023 5.845387290779928 L1.5870615983592802 5.866439584534816 L1.5884109182795372 5.867160614480019 z"/>
<path fill="#c7df66" stroke="#c7df66" d="M-0.6154356591265114 5.600437732669591 L0.23749581622670862 5.544510919340583 L0.2887999651201354 5.541146900493725 L0.2887999651201354 17.906629133996265 L0.08785871528754723 17.91980487447979 L-0.8565651589256171 17.981730854752364 L-0.8565651589256171 5.616248621249822 z"/>
<path fill="#c7df66" stroke="#c7df66" d="M-1.037210992774995 18.045381416368787 L-1.886246411867071 18.344539055965978 L-1.886246411867071 5.9790568224634395 L-1.6694714112478177 5.902676148523732 L-0.9026874994829052 5.6324998284710395 L-0.8565651589256172 5.6162486212498255 L-0.8565651589256172 17.98173085475236 z"/>
<path fill="#c7df66" stroke="#c7df66" d="M-2.4411608463636942 6.409790182829478 L-1.920957866423248 6.006000402472743 L-1.886246411867074 5.979056822463444 L-1.8862464118670743 18.344539055965978 L-2.0221996088787604 18.450068077669066 L-2.584804699215675 18.886771046730736 L-2.6611796348336947 18.946054479673567 L-2.6611796348336916 6.580572246171032 L-2.641679651271646 6.565436050526053 L-2.4980357984196684 6.453937420127328 z"/>
<path fill="#c7df66" stroke="#c7df66" d="M1.3951610535805654 5.763894563736255 L1.3951610535805654 18.129376797238795 L1.2010626170085603 18.090298259827822 L0.2887999651201354 17.90662913399626 L0.2887999651201354 5.541146900493724 L0.5217180890065417 5.588041145386889 L1.34560400594516 5.753917064822816 z"/>
<path fill="#c7df66" stroke="#c7df66" d="M-2.9122914287975346 8.453818888582806 L-3.05809320773617 8.1875027774817 L-3.0767058020106113 8.153505704464104 L-3.076705802010612 20.518987937966642 L-3.0038064744357142 20.65214314061889 L-2.8809148417215877 20.876612430016696 L-2.6611796348336925 21.27797259308447 L-2.661179634833692 8.912490359581932 L-2.7172822408476223 8.810015424330587 L-2.74865882792357 8.752704116399231 z"/>
<path fill="#c7df66" stroke="#c7df66" d="M3.092918961058883 19.971646908652495 L2.9186380780356345 19.311923758337848 L2.918638078035635 6.946441524835313 L2.963135324764975 7.1148814781071374 L3.120532500695885 7.710693014946307 L3.13 7.746531302876482 L3.13 20.112013536379017 z"/>
<path fill="#c7df66" stroke="#c7df66" d="M-2.06655939601812 9.374043993231812 L-2.075710016687705 9.366941136745439 L-2.1231782955150975 9.330095507979877 L-2.661179634833691 8.912490359581932 L-2.661179634833691 21.277972593084467 L-2.5252264378220035 21.383501614787555 L-2.506810301714892 21.397796510896303 L-2.162660597140025 21.6649309545245 L-2.0665593960181203 21.73952622673435 L-2.06655939601812 11.663663465485488 L-2.066559396018119 9.820216007830735 z"/>
<path fill="#c7df66" stroke="#c7df66" d="M2.1198480462016893 9.341920351727614 L2.0803841162302743 9.36300851239114 L2.0597325549089316 9.374043993231814 L2.0597325549089285 10.692882022412688 L2.0597325549089307 20.84790963118343 L2.059732554908931 21.73952622673435 L2.110788959555744 21.7122434481344 L2.146771520630521 21.693015610724906 L2.2517014312806594 21.6369446918934 L2.3130979109006615 21.604136534486397 L2.313097910900658 9.238654300983857 z"/>
<path fill="#c7df66" stroke="#c7df66" d="M-2.6611796348336916 6.580572246171032 L-2.6611796348336916 18.946054479673567 L-2.7340789624085913 19.079209682325818 L-2.7393696564070247 19.088873467369773 L-3.076705802010612 19.705039134791395 L-3.076705802010612 7.3395569012888595 L-2.9905774244096976 7.182238007479084 L-2.989226608920735 7.179770658106158 L-2.7380188409180626 6.720923884494312 L-2.679792229108134 6.614569319188628 z"/>
<path fill="#c7df66" stroke="#c7df66" d="M2.4193330279418834 21.482727197632677 L2.918638078035632 20.912103314420193 L2.9186380780356322 8.546621080917655 L2.7911559375861636 8.692312285142117 L2.3402217705707593 9.207656172425462 L2.3130979109006624 9.238654300983859 L2.3130979109006615 21.604136534486397 z"/>
<path fill="#c7df66" stroke="#c7df66" d="M-2.0360718276439154 9.374043993231806 L-2.0409340461466843 9.374043993231806 L-2.0665593960181208 9.374043993231806 L-2.0665593960181208 9.82021600783073 L-2.0665593960181208 11.663663465485488 L-2.0665593960181208 21.739526226734345 L-1.7463743456438456 21.739526226734345 L-0.1008049055049008 21.739526226734345 L1.2282312207474344 21.739526226734345 L1.2824626517912097 21.739526226734345 L1.5703723566263266 21.739526226734345 L1.791893004740362 21.739526226734345 L1.9069080224192034 21.739526226734345 L2.0597325549089325 21.739526226734345 L2.0597325549089325 20.847909631183427 L2.0597325549089325 10.692882022412684 L2.0597325549089325 9.374043993231806 L1.879791920315505 9.374043993231806 L1.7443694529161957 9.374043993231806 L-1.8002188229228304 9.374043993231806 L-1.8793830292065905 9.374043993231806 L-1.904891408587912 9.374043993231806 z"/>
<path fill="#c7df66" stroke="#c7df66" d="M3.712332673674991 21.01382922713027 L3.71233267367499 8.648346993627735 L3.8707019592361673 7.976782117536376 L3.9249999999999994 7.746531302876483 L3.9249999999999994 20.112013536379017 z"/>
<path fill="#c7df66" stroke="#c7df66" d="M3.7123326736749904 21.01382922713027 L3.0973764993808444 21.81791919467642 L3.0973764993808435 9.452436961173884 L3.555322586621165 8.85364655980973 L3.7123326736749895 8.648346993627733 z"/>
<path fill="#c7df66" stroke="#c7df66" d="M2.146771520630523 22.437147814292473 L2.146771520630523 10.071665580789938 L2.854668845231825 9.610537885331174 L3.097376499380844 9.452436961173886 L3.097376499380841 21.81791919467642 z"/>
<path fill="#c7df66" stroke="#c7df66" d="M0.9635305370276367 22.804412056721016 L-0.32412393097890396 22.879913142603044 L-0.32412393097890396 10.51443090910051 L0.6347676941323497 10.458206696209638 L0.9635305370276367 10.438929823218482 z"/>
<path fill="#c7df66" stroke="#c7df66" d="M-1.5766545417629045 22.655469357763184 L-1.5766545417629045 10.289987124260648 L-0.6439189805407765 10.457126112971183 L-0.32412393097890396 10.514430909100511 L-0.32412393097890396 22.879913142603048 z"/>
<path fill="#c7df66" stroke="#c7df66" d="M1.5874996842945552 10.245257055502146 L1.8446674397106388 10.165435174601479 L2.146771520630525 10.071665580789935 L2.146771520630525 22.437147814292473 L0.9635305370276366 22.80441205672102 L0.9635305370276366 10.438929823218482 z"/>
<path fill="#c7df66" stroke="#c7df66" d="M-1.5766545417629045 22.655469357763188 L-2.658330168631033 22.15540266889298 L-2.658330168631033 9.78992043539044 L-1.8528270422398736 10.162310522846978 L-1.5766545417629045 10.289987124260646 z"/>
<path fill="#c7df66" stroke="#c7df66" d="M-3.144325964295766 9.348080876515892 L-2.8609525443385486 9.605707769562194 L-2.6583301686310326 9.789920435390444 L-2.6583301686310334 22.15540266889298 L-3.451934473485468 21.433903061065664 L-3.451934473485467 9.068420827563129 z"/>
<path fill="#c7df66" stroke="#c7df66" d="M-3.4519344734854687 21.433903061065667 L-3.8714681158556843 20.569156212009233 L-3.8714681158556834 8.203673978506698 L-3.559049446005523 8.847634398016806 L-3.451934473485468 9.06842082756313 z"/>
<path fill="#c7df66" stroke="#c7df66" d="M-3.4519344734854713 18.79012401169237 L-3.4519344734854704 6.424641778189836 L-3.7643531433356308 7.0686021976999465 L-3.871468115855685 7.28938862724627 L-3.871468115855686 19.654870860748805 z"/>
<path fill="#c7df66" stroke="#c7df66" d="M-3.4519344734854713 6.424641778189836 L-3.4519344734854744 18.79012401169237 L-2.658330168631035 18.06862440386506 L-2.6583301686310365 5.703142170362521 L-3.249312097777955 6.2404291123615865 z"/>
<path fill="#c7df66" stroke="#c7df66" d="M-3.8714681158556847 7.970239420738078 L-3.8714681158556847 8.059326656698838 L-3.8714681158556843 8.203673978506696 L-3.8714681158556843 20.569156212009233 L-3.8714681158556847 19.654870860748808 L-3.8714681158556847 7.28938862724627 z"/>
<path fill="#c7df66" stroke="#c7df66" d="M-1.576654541762906 17.568557714994846 L-1.576654541762906 5.20307548149231 L-2.3821576681540653 5.5754655689488475 L-2.6583301686310343 5.703142170362518 L-2.6583301686310343 18.06862440386505 z"/>
<path fill="#c7df66" stroke="#c7df66" d="M2.146771520630524 17.78687925846556 L2.146771520630524 5.421397024963019 L1.265634617947523 5.147902376346016 L0.9635305370276368 5.054132782534472 L0.9635305370276368 17.419615016037014 z"/>
<path fill="#c7df66" stroke="#c7df66" d="M3.71233267367499 6.844715612125229 L3.7123326736749895 19.210197845627764 L3.925 20.112013536379017 L3.9249999999999994 7.746531302876483 L3.7666307144388216 7.074966426785123 z"/>
<path fill="#c7df66" stroke="#c7df66" d="M-1.5766545417629063 17.568557714994846 L-0.3241239309789057 17.344113930154982 L-0.3241239309789057 4.978631696652445 L-1.2568594922010339 5.145770685362982 L-1.5766545417629063 5.203075481492308 z"/>
<path fill="#c7df66" stroke="#c7df66" d="M0.9635305370276369 5.0541327825344755 L0.004638911916381774 4.997908569643604 L-0.3241239309789057 4.978631696652448 L-0.3241239309789057 17.344113930154986 L0.9635305370276369 17.419615016037014 z"/>
<path fill="#c7df66" stroke="#c7df66" d="M3.71233267367499 6.844715612125229 L3.2543865864346673 6.245925210761074 L3.0973764993808426 6.0406256445790785 L3.097376499380843 18.406107878081613 L3.7123326736749904 19.210197845627764 z"/>
<path fill="#c7df66" stroke="#c7df66" d="M2.3894791747795443 5.579497949120316 L2.3158654594252366 5.531545623640617 L2.1467715206305256 5.421397024963025 L2.1467715206305273 17.78687925846556 L3.097376499380844 18.406107878081613 L3.097376499380844 6.040625644579077 z"/>
<path fill="#c7df66" stroke="#c7df66" d="M3.085502753270659 7.914971256148308 L2.928105577339748 8.510782792987479 L2.918638078035633 8.546621080917655 L2.9186380780356336 20.91210331442019 L2.955719116976749 20.77173668669367 L3.13 20.112013536379017 L3.1299999999999994 7.746531302876483 z"/>
<path fill="#c7df66" stroke="#c7df66" d="M-3.076705802010612 7.734633462403777 L-3.076705802010612 7.376015974219442 L-3.076705802010612 7.339556901288859 L-3.076705802010612 19.705039134791395 L-3.076705802010612 19.847837170436176 L-3.076705802010612 20.2017316820935 L-3.0767058020106126 20.518987937966642 L-3.0767058020106126 8.153505704464104 L-3.076705802010612 8.072504107219897 L-3.076705802010612 7.982148061690368 L-3.076705802010612 7.745893403061433 z"/>
<path fill="#c7df66" stroke="#c7df66" d="M2.440580051350131 6.400099508993572 L2.8915142183655353 6.915443396276916 L2.9186380780356354 6.946441524835312 L2.918638078035637 19.311923758337848 L2.8124029609944112 19.190514421484128 L2.313097910900666 18.61989053827164 L2.3130979109006646 6.254408304769107 z"/>
<path fill="#c7df66" stroke="#c7df66" d="M-3.8714681158556847 20.569156212009233 L-3.451934473485469 21.433903061065667 L-2.6583301686310334 22.15540266889298 L-1.5766545417629048 22.655469357763188 L-0.324123930978904 22.87991314260305 L0.9635305370276368 22.804412056721024 L2.1467715206305256 22.437147814292477 L3.097376499380845 21.81791919467642 L3.712332673674991 21.013829227130273 L3.925 20.112013536379017 L3.7123326736749895 19.210197845627764 L3.097376499380842 18.406107878081613 L2.1467715206305242 17.78687925846556 L0.963530537027637 17.419615016037014 L-0.32412393097890574 17.344113930154986 L-1.5766545417629065 17.56855771499485 L-2.6583301686310348 18.068624403865055 L-3.4519344734854704 18.79012401169237 L-3.871468115855685 19.654870860748808 M-0.8565651589256174 17.981730854752364 L0.08785871528754723 17.919804874479794 L0.28879996512013545 17.906629133996265 L1.2010626170085603 18.09029825982783 L1.3951610535805656 18.1293767972388 L1.4001552411646045 18.132045518530173 L2.1467715206305242 18.531011462033128 L2.1520563569848563 18.533835495985176 L2.3130979109006633 18.619890538271644 L2.8124029609944112 19.190514421484128 L2.9186380780356345 19.311923758337848 L3.0929189610588828 19.9716469086525 L3.13 20.112013536379017 L2.9557191169767503 20.77173668669367 L2.9186380780356336 20.91210331442019 L2.419333027941885 21.482727197632673 L2.3130979109006624 21.604136534486393 L2.2517014312806625 21.636944691893405 L2.146771520630525 21.69301561072491 L2.110788959555747 21.7122434481344 L2.0597325549089325 21.73952622673435 L1.9069080224192034 21.73952622673435 L1.791893004740362 21.73952622673435 L1.5703723566263266 21.73952622673435 L1.2824626517912097 21.73952622673435 L1.2282312207474344 21.73952622673435 L-0.1008049055049008 21.73952622673435 L-1.7463743456438456 21.73952622673435 L-2.0665593960181208 21.73952622673435 L-2.162660597140026 21.664930954524497 L-2.5068103017148933 21.397796510896303 L-2.5252264378220044 21.383501614787555 L-2.6611796348336925 21.27797259308447 L-2.8809148417215886 20.876612430016696 L-3.0038064744357142 20.652143140618893 L-3.0767058020106126 20.518987937966642 L-3.076705802010612 20.2017316820935 L-3.076705802010612 19.847837170436176 L-3.076705802010612 19.705039134791395 L-2.7393696564070247 19.088873467369773 L-2.7340789624085895 19.079209682325818 L-2.6611796348336916 18.946054479673567 L-2.5848046992156712 18.886771046730736 L-2.022199608878759 18.450068077669066 L-1.8862464118670714 18.344539055965978 L-1.037210992774995 18.04538141636879 z"/>
<path fill="#c7df66" stroke="#c7df66" d="M-0.37533327350569695 3.8637259965902575 L-0.1825150354030936 3.8730588115975277 L1.1190080717894788 3.9360553128965994 L1.3011177022064917 3.9818533630534265 L2.5303577075213295 4.290990201612008 L2.688252492060847 4.369856855050399 L2.945775811437948 4.498486831276971 L3.7540422877025907 4.902206765759535 L3.7867292684473495 4.930637075003157 L3.876011892515893 5.008292843584897 L4.242640687119285 5.327177297599888 L4.699306725005682 5.724373868906087 L4.77630522247758 5.849811452037625 L5.066212662982719 6.32209714413294 L5.296045080412894 6.696515138175508 L5.322361844230584 6.832001094911119 L5.5 7.746531302876483 L5.473683236182309 7.882017259612092 L5.296045080412896 8.796547467577449 L5.219046582940998 8.921985050708987 L4.6993067250056875 9.768688736846872 L4.577337120192385 9.874774814672234 L4.372005248995134 10.053367283682865 L4.24264068711928 10.165885308153081 L3.754042287702597 10.590855839993425 L3.659442932870647 10.638107144428751 L3.5961475031630794 10.669722493431816 L2.530357707521337 11.202072404140955 L2.3482480771043237 11.247870454297782 L1.119008071789486 11.557007292856365 L0.9261898336868825 11.566340107863635 L0.8711163435241936 11.569005782545402 L-0.3753332735056901 11.629336609162708 L-0.5645596726585589 11.601512016826119 L-1.8418378669404236 11.413696018554145 L-2.013438370771565 11.350777641598263 L-2.514665158732202 11.166999766351895 L-3.171741771631769 10.926078597146056 L-3.3129895557920968 10.832732803757276 L-4.266412098874309 10.202648698383003 L-4.3668314613782675 10.08579851902838 L-4.869932418600246 9.500379177389428 L-5.0446621582799915 9.29705980838467 L-5.0968054543986785 9.165371486312939 L-5.113106121576326 9.12420401764375 L-5.177069818955929 8.962663175226513 L-5.303156431816024 8.644230400177918 L-5.41041211567396 8.37335529079169 L-5.448772703199819 8.276475312328728 L-5.448772703199819 8.139715567953955 L-5.448772703199819 7.929594834285149 L-5.448772703199819 7.216587293424239 L-5.396629407081131 7.084898971352504 L-5.044662158279992 6.196002797368294 L-4.944242795776033 6.07915261801367 L-4.5935504638808915 5.6710793056719115 L-4.26641209887431 5.290413907369963 L-4.125164314713983 5.1970681139811825 L-3.171741771631774 4.566984008606912 L-3.0001412678006325 4.504065631651029 L-1.9346710717024949 4.113404450962846 L-1.8418378669404294 4.079366587198821 L-1.6526114677875605 4.051541994862232 L-0.39037295026413693 3.8659374896829295 M-0.7165544816229107 5.6070681053000175 L-0.8565651589256174 5.616248621249829 L-0.898521610658376 5.6310319774962245 L-1.6694714112478177 5.902676148523735 L-1.760377056668795 5.9347067537242575 L-1.8862464118670714 5.979056822463444 L-1.9178226382697858 6.003566788794483 L-2.498035798419666 6.453937420127329 L-2.5664509556255477 6.507042347177914 L-2.6611796348336916 6.580572246171031 L-2.6781110915607647 6.611498615819296 L-2.9892266089207338 7.179770658106159 L-3.0259114318293925 7.246777792344066 L-3.076705802010612 7.33955690128886 L-3.076705802010612 7.372722896664421 L-3.076705802010612 7.734633462403777 L-3.076705802010612 7.982148061690369 L-3.076705802010612 8.054007718337418 L-3.0767058020106126 8.153505704464104 L-3.059774345283539 8.184432074112369 L-2.74865882792357 8.752704116399231 L-2.717048140669078 8.81044302301705 L-2.7005041861534784 8.840661595526253 L-2.666253770487858 8.903222131961845 L-2.6611796348336925 8.912490359581932 L-2.2092436988391375 9.263290180742986 L-2.1231782955151 9.330095507979877 L-2.0665593960181208 9.374043993231812 L-2.0409340461466843 9.374043993231812 L-1.904891408587912 9.374043993231812 L-1.8002188229228304 9.374043993231812 L-1.233182279920681 9.374043993231812 L1.7443694529161957 9.374043993231812 L1.879791920315505 9.374043993231812 L2.0597325549089325 9.374043993231812 L2.119848046201694 9.341920351727614 L2.182039825719019 9.30868721353378 L2.3130979109006624 9.238654300983859 L2.3377718735683013 9.210456003392027 L2.5269981480443704 8.994201368020137 L2.791155937586166 8.692312285142117 L2.79451549706313 8.688472858975151 L2.8446161900327165 8.631215973693148 L2.9186380780356336 8.546621080917655 L2.9272504483703443 8.514019799639236 L3.0855027532706596 7.914971256148308 L3.104162888995867 7.844335146711736 L3.13 7.746531302876483 L3.1213876296652887 7.713930021598065 L2.9631353247649743 7.114881478107138 L2.944475189039767 7.044245368670566 L2.9186380780356345 6.946441524835312 L2.893964115367995 6.91824322724348 L2.5557844378232804 6.531759251589961 L2.4405800513501306 6.400099508993571 L2.4151533210481824 6.3710409213034005 L2.38711979890358 6.339003197544602 L2.3130979109006633 6.254408304769107 L2.275694711281508 6.234421327205799 L1.5884109182795334 5.867160614480019 L1.547664788948699 5.845387290779927 L1.5073706524380308 5.823855496426186 L1.3951610535805656 5.763894563736262 L1.350080126376745 5.75481825827307 L0.9552658778330729 5.675328883424991 L0.5217180890065417 5.588041145386896 L0.5083080164261147 5.585341247168892 L0.4240427467315972 5.568375816883311 L0.28879996512013545 5.541146900493732 L0.24212973935256657 5.544207072477001 L-0.6154356591265114 5.600437732669598 z"/>
<path fill="#c7df66" stroke="#c7df66" d="M-3.076705802010612 7.734633462403777 L-3.076705802010612 7.372722896664421 L-3.0767058020106117 7.3395569012888595 L-3.076705802010612 16.878643195705102 L-3.076705802010612 17.135679659865705 L-3.0767058020106126 17.692591998880346 L-3.0767058020106126 8.153505704464104 L-3.076705802010612 8.05400771833742 L-3.076705802010612 7.982148061690369 z"/>
<path fill="#c7df66" stroke="#c7df66" d="M2.9631353247649748 7.1148814781071374 L3.1213876296652887 7.713930021598065 L3.13 7.746531302876483 L3.13 17.285617597292724 L3.0632541299059897 17.032957667384984 L2.918638078035635 16.485527819251555 L2.918638078035634 6.946441524835312 L2.9444751890397676 7.044245368670565 z"/>
<path fill="#c7df66" stroke="#c7df66" d="M-0.8565651589256172 15.155334915666069 L-0.8565651589256172 5.616248621249829 L-0.7165544816229107 5.607068105300017 L-0.6154356591265114 5.600437732669597 L0.24212973935256651 5.544207072477002 L0.2887999651201354 5.5411469004937315 L0.2887999651201354 15.080233194909972 L-0.07289428457852332 15.103949527780319 z"/>
<path fill="#c7df66" stroke="#c7df66" d="M-2.661179634833691 8.912490359581932 L-2.661179634833692 18.451576653998174 L-2.4164638802126537 18.64152889306373 L-2.3833148352198523 18.667259706059475 L-2.0665593960181194 18.913130287648055 L-2.0665593960181208 11.663663465485488 L-2.0665593960181194 9.820216007830735 L-2.0665593960181186 9.374043993231812 L-2.1231782955150984 9.330095507979877 L-2.2092436988391357 9.263290180742986 z"/>
<path fill="#c7df66" stroke="#c7df66" d="M2.4405800513501323 6.400099508993571 L2.5557844378232817 6.531759251589961 L2.893964115367996 6.91824322724348 L2.9186380780356345 6.946441524835312 L2.9186380780356367 16.48552781925155 L2.7274148673614356 16.266991012914858 L2.530357707521332 16.04178695831603 L2.3130979109006637 15.79349459918535 L2.3130979109006633 6.2544083047691075 L2.3871197989035813 6.339003197544602 L2.415153321048183 6.3710409213034005 z"/>
<path fill="#c7df66" stroke="#c7df66" d="M-2.9892266089207356 7.179770658106159 L-2.6781110915607647 6.611498615819297 L-2.6611796348336916 6.580572246171032 L-2.6611796348336916 16.119658540587274 L-2.792398424468509 16.359337905361325 L-3.0767058020106117 16.878643195705102 L-3.076705802010613 7.3395569012888595 L-3.025911431829393 7.246777792344066 z"/>
<path fill="#c7df66" stroke="#c7df66" d="M-2.9454870123757946 17.932271363654397 L-2.7005041861534775 18.379747889942497 L-2.661179634833691 18.451576653998174 L-2.661179634833692 8.912490359581932 L-2.6662537704878573 8.903222131961844 L-2.7005041861534784 8.840661595526253 L-2.717048140669078 8.81044302301705 L-2.74865882792357 8.752704116399231 L-3.059774345283539 8.184432074112369 L-3.076705802010612 8.153505704464104 L-3.0767058020106126 17.692591998880346 z"/>
<path fill="#c7df66" stroke="#c7df66" d="M3.1299999999999994 7.746531302876482 L3.104162888995867 7.844335146711736 L3.085502753270659 7.914971256148309 L2.927250448370344 8.514019799639238 L2.918638078035633 8.546621080917655 L2.9186380780356327 18.085707375333897 L2.9853839481296434 17.833047445426157 L3.1299999999999994 17.285617597292724 z"/>
<path fill="#c7df66" stroke="#c7df66" d="M-2.0409340461466843 9.374043993231808 L-2.0665593960181208 9.374043993231808 L-2.0665593960181208 9.820216007830735 L-2.0665593960181208 11.663663465485488 L-2.0665593960181208 18.913130287648052 L1.1904761904761905 18.913130287648052 L2.0597325549089325 18.913130287648052 L2.0597325549089325 10.692882022412682 L2.0597325549089325 9.374043993231808 L1.879791920315505 9.374043993231808 L1.7443694529161957 9.374043993231808 L-1.233182279920681 9.374043993231808 L-1.8002188229228304 9.374043993231808 L-1.904891408587912 9.374043993231808 z"/>
<path fill="#c7df66" stroke="#c7df66" d="M1.5884109182795374 5.867160614480019 L2.2756947112815125 6.234421327205799 L2.313097910900667 6.254408304769106 L2.3130979109006673 15.793494599185347 L2.0232231138522137 15.638595523069712 L1.395161053580567 15.302980858152505 L1.3951610535805705 5.763894563736259 L1.5073706524380355 5.823855496426182 L1.5476647889487005 5.845387290779926 z"/>
<path fill="#c7df66" stroke="#c7df66" d="M-2.130962166488112 15.70809535594524 L-2.6611796348336947 16.119658540587274 L-2.6611796348336947 6.580572246171031 L-2.566450955625548 6.507042347177915 L-2.4980357984196666 6.453937420127329 L-1.9178226382697883 6.003566788794483 L-1.8862464118670739 5.979056822463443 L-1.8862464118670743 15.518143116879685 z"/>
<path fill="#c7df66" stroke="#c7df66" d="M-1.8862464118670712 15.518143116879687 L-1.8862464118670712 5.979056822463444 L-1.7603770566687948 5.934706753724258 L-1.6694714112478177 5.902676148523735 L-0.8985216106583759 5.6310319774962245 L-0.8565651589256172 5.616248621249829 L-0.8565651589256172 15.155334915666073 L-1.1817276598544975 15.269905926575635 z"/>
<path fill="#c7df66" stroke="#c7df66" d="M2.5303577075213344 18.529448236269413 L2.9186380780356336 18.085707375333897 L2.9186380780356322 8.546621080917655 L2.8446161900327165 8.63121597369315 L2.7945154970631285 8.688472858975151 L2.791155937586164 8.692312285142119 L2.5269981480443695 8.99420136802014 L2.337771873568301 9.210456003392027 L2.3130979109006615 9.238654300983859 L2.3130979109006624 18.7777405954001 L2.5043211215748626 18.559203789063403 z"/>
<path fill="#c7df66" stroke="#c7df66" d="M5.499999999999999 7.746531302876483 L5.499999999999999 17.285617597292724 L5.296045080412895 18.33563376199369 L5.296045080412895 8.796547467577449 L5.473683236182309 7.882017259612092 z"/>
<path fill="#c7df66" stroke="#c7df66" d="M5.296045080412895 8.796547467577449 L5.296045080412895 18.33563376199369 L4.6993067250056875 19.307775031263112 L4.699306725005686 9.768688736846872 L5.219046582940998 8.921985050708987 z"/>
<path fill="#c7df66" stroke="#c7df66" d="M4.3720052489951335 10.053367283682865 L4.577337120192385 9.874774814672234 L4.699306725005687 9.768688736846872 L4.699306725005686 19.307775031263116 L3.7540422877025943 20.129942134409667 L3.7540422877025965 10.590855839993425 L4.242640687119279 10.165885308153081 z"/>
<path fill="#c7df66" stroke="#c7df66" d="M3.596147503163079 10.669722493431815 L3.6594429328706464 10.638107144428748 L3.7540422877025965 10.590855839993424 L3.7540422877025965 20.129942134409664 L2.5303577075213366 20.741158698557193 L2.5303577075213366 11.202072404140953 z"/>
<path fill="#c7df66" stroke="#c7df66" d="M2.5303577075213366 20.741158698557193 L1.1190080717894857 21.096093587272605 L1.1190080717894857 11.557007292856362 L2.3482480771043237 11.247870454297777 L2.5303577075213366 11.202072404140951 z"/>
<path fill="#c7df66" stroke="#c7df66" d="M0.8711163435241935 11.569005782545398 L0.9261898336868823 11.566340107863631 L1.1190080717894857 11.557007292856362 L1.1190080717894857 21.09609358727261 L-0.37533327350569007 21.16842290357895 L-0.37533327350569007 11.629336609162705 z"/>
<path fill="#c7df66" stroke="#c7df66" d="M-4.266412098874308 19.74173499279925 L-4.266412098874307 10.202648698383005 L-3.3129895557920945 10.832732803757274 L-3.1717417716317677 10.926078597146056 L-3.171741771631767 20.465164891562296 z"/>
<path fill="#c7df66" stroke="#c7df66" d="M-0.37533327350569007 21.168422903578946 L-1.8418378669404232 20.952782312970385 L-1.8418378669404232 11.413696018554143 L-0.5645596726585589 11.601512016826115 L-0.37533327350569007 11.629336609162705 z"/>
<path fill="#c7df66" stroke="#c7df66" d="M-1.8418378669404234 11.413696018554147 L-1.8418378669404234 20.95278231297039 L-3.1717417716317686 20.4651648915623 L-3.1717417716317686 10.926078597146056 L-2.514665158732202 11.166999766351895 L-2.0134383707715644 11.350777641598263 z"/>
<path fill="#c7df66" stroke="#c7df66" d="M-4.869932418600245 9.500379177389428 L-4.366831461378267 10.08579851902838 L-4.266412098874308 10.202648698383003 L-4.266412098874309 19.741734992799245 L-5.04466215827999 18.836146102800914 L-5.04466215827999 9.297059808384672 z"/>
<path fill="#c7df66" stroke="#c7df66" d="M-5.410412115673959 8.37335529079169 L-5.303156431816024 8.644230400177918 L-5.177069818955929 8.962663175226515 L-5.113106121576325 9.12420401764375 L-5.096805454398678 9.165371486312937 L-5.044662158279991 9.297059808384672 L-5.044662158279991 18.836146102800914 L-5.448772703199819 17.81556160674497 L-5.448772703199818 8.276475312328728 z"/>
<path fill="#c7df66" stroke="#c7df66" d="M-5.448772703199819 7.92959483428515 L-5.448772703199819 8.139715567953957 L-5.448772703199819 8.27647531232873 L-5.448772703199819 17.81556160674497 L-5.448772703199819 16.75567358784048 L-5.448772703199819 7.216587293424239 z"/>
<path fill="#c7df66" stroke="#c7df66" d="M-5.44877270319982 7.216587293424238 L-5.44877270319982 16.75567358784048 L-5.044662158279993 15.735089091784538 L-5.044662158279992 6.196002797368294 L-5.396629407081132 7.084898971352503 z"/>
<path fill="#c7df66" stroke="#c7df66" d="M-4.593550463880892 5.671079305671912 L-4.9442427957760335 6.079152618013671 L-5.044662158279993 6.196002797368294 L-5.044662158279994 15.735089091784536 L-4.266412098874311 14.829500201786205 L-4.266412098874311 5.290413907369963 z"/>
<path fill="#c7df66" stroke="#c7df66" d="M-3.171741771631776 14.106070303023154 L-3.1717417716317766 4.5669840086069105 L-4.125164314713984 5.197068113981182 L-4.266412098874311 5.290413907369964 L-4.266412098874313 14.829500201786203 z"/>
<path fill="#c7df66" stroke="#c7df66" d="M-1.9346710717024946 4.113404450962844 L-3.000141267800632 4.504065631651028 L-3.1717417716317735 4.566984008606911 L-3.1717417716317735 14.106070303023154 L-1.8418378669404292 13.618452881615063 L-1.8418378669404292 4.0793665871988205 z"/>
<path fill="#c7df66" stroke="#c7df66" d="M-0.3903729502641369 3.8659374896829286 L-1.6526114677875603 4.051541994862232 L-1.8418378669404292 4.0793665871988205 L-1.8418378669404292 13.618452881615061 L-0.3753332735056969 13.402812291006498 L-0.3753332735056969 3.8637259965902575 z"/>
<path fill="#c7df66" stroke="#c7df66" d="M-0.3753332735056969 3.863725996590254 L-0.3753332735056969 13.402812291006498 L1.1190080717894786 13.475141607312839 L1.1190080717894786 3.9360553128965954 L-0.1825150354030936 3.8730588115975237 z"/>
<path fill="#c7df66" stroke="#c7df66" d="M2.530357707521329 4.290990201612004 L1.3011177022064915 3.981853363053422 L1.1190080717894786 3.936055312896595 L1.1190080717894786 13.475141607312842 L2.530357707521329 13.830076496028251 z"/>
<path fill="#c7df66" stroke="#c7df66" d="M2.9457758114379478 4.498486831276969 L2.6882524920608466 4.369856855050397 L2.530357707521329 4.290990201612006 L2.530357707521329 13.830076496028251 L3.7540422877025903 14.441293060175779 L3.7540422877025903 4.902206765759534 z"/>
<path fill="#c7df66" stroke="#c7df66" d="M3.8760118925158937 5.008292843584897 L3.786729268447351 4.930637075003158 L3.754042287702592 4.902206765759535 L3.7540422877025903 14.441293060175779 L4.699306725005683 15.263460163322328 L4.699306725005685 5.724373868906086 L4.242640687119286 5.327177297599888 z"/>
<path fill="#c7df66" stroke="#c7df66" d="M5.0662126629827196 6.3220971441329405 L4.776305222477581 5.849811452037625 L4.699306725005683 5.724373868906087 L4.699306725005684 15.26346016332233 L5.296045080412895 16.23560143259175 L5.296045080412894 6.696515138175509 z"/>
<path fill="#c7df66" stroke="#c7df66" d="M5.296045080412894 6.696515138175508 L5.296045080412894 16.23560143259175 L5.5 17.285617597292724 L5.5 7.746531302876483 L5.322361844230585 6.832001094911118 z"/>
<path fill="#c7df66" stroke="#c7df66" d="M2.0597325549089294 9.37404399323181 L2.059732554908931 10.692882022412688 L2.059732554908932 18.913130287648055 L2.202584247584661 18.836795278732716 L2.3130979109006615 18.7777405954001 L2.313097910900662 9.23865430098386 L2.1820398257190177 9.308687213533782 L2.1198480462016907 9.341920351727614 z"/>
<path fill="#c7df66" stroke="#c7df66" d="M2.530357707521337 20.741158698557197 L3.754042287702597 20.129942134409667 L4.6993067250056875 19.307775031263112 L5.296045080412896 18.33563376199369 L5.5 17.285617597292724 L5.296045080412894 16.23560143259175 L4.699306725005682 15.26346016332233 L3.7540422877025907 14.441293060175779 L2.5303577075213295 13.83007649602825 L1.1190080717894788 13.475141607312842 L-0.37533327350569695 13.4028122910065 L-1.8418378669404294 13.618452881615065 L-3.171741771631774 14.106070303023154 L-4.26641209887431 14.829500201786205 L-5.044662158279992 15.735089091784536 L-5.448772703199819 16.75567358784048 L-5.448772703199819 17.81556160674497 L-5.0446621582799915 18.836146102800914 L-4.266412098874309 19.74173499279925 L-3.171741771631769 20.4651648915623 L-1.8418378669404236 20.95278231297039 L-0.3753332735056901 21.16842290357895 L1.119008071789486 21.09609358727261 M1.0457838677509559 15.23263949081276 L1.3951610535805656 15.302980858152505 L2.023223113852211 15.638595523069714 L2.3130979109006633 15.79349459918535 L2.5303577075213317 16.04178695831603 L2.727414867361433 16.266991012914858 L2.9186380780356345 16.485527819251555 L3.0632541299059897 17.032957667384988 L3.13 17.285617597292724 L2.985383948129644 17.833047445426157 L2.9186380780356336 18.085707375333897 L2.5303577075213344 18.529448236269413 L2.5043211215748635 18.559203789063403 L2.3130979109006624 18.7777405954001 L2.202584247584663 18.836795278732716 L2.0597325549089325 18.913130287648055 L1.1904761904761905 18.913130287648055 L-2.0665593960181208 18.913130287648055 L-2.3833148352198545 18.667259706059475 L-2.4164638802126546 18.64152889306373 L-2.6611796348336925 18.451576653998174 L-2.7005041861534784 18.379747889942497 L-2.9454870123757955 17.932271363654397 L-3.0767058020106126 17.692591998880346 L-3.076705802010612 17.135679659865705 L-3.076705802010612 16.8786431957051 L-2.7923984244685083 16.359337905361322 L-2.6611796348336916 16.119658540587274 L-2.1309621664881093 15.70809535594524 L-1.8862464118670714 15.518143116879685 L-1.1817276598544975 15.269905926575632 L-0.8565651589256174 15.155334915666073 L-0.07289428457852333 15.103949527780319 L0.28879996512013545 15.080233194909974 L0.9418558052526459 15.21171527962323 z"/>
<path fill="#c7df66" stroke="#c7df66" d="M0.9418558052526458 15.211715279623226 L0.2887999651201354 15.08023319490997 L0.2887999651201354 5.541146900493728 L0.4240427467315971 5.568375816883307 L0.5083080164261147 5.585341247168889 L0.5217180890065417 5.588041145386892 L0.9552658778330729 5.675328883424988 L1.3500801263767448 5.754818258273065 L1.3951610535805654 5.763894563736258 L1.3951610535805654 15.3029808581525 L1.0457838677509559 15.232639490812755 z"/>
</svg>